<svg width="13" height="13" viewBox="0 0 13 13" xmlns="http://www.w3.org/2000/svg">
<path d="M2.63635 9.13938V3.51514C2.63635 3.05137 2.63635 2.81948 2.73395 2.68226C2.81913 2.5625 2.95042 2.48374 3.09617 2.46494C3.26302 2.44342 3.46719 2.55231 3.87563 2.77015L3.87678 2.77076L9.14951 5.58288C9.60269 5.82458 9.82928 5.94545 9.90353 6.10637C9.96822 6.24655 9.96822 6.408 9.90353 6.54818C9.82928 6.7091 9.60269 6.82996 9.14951 7.07165L3.87678 9.88377L3.87533 9.88455C3.46709 10.1023 3.26297 10.2111 3.09617 10.1896C2.95042 10.1708 2.81913 10.0921 2.73395 9.9723C2.63635 9.83508 2.63635 9.60315 2.63635 9.13938Z" />
</svg>
