<svg width="112" height="80" viewBox="0 0 112 80" fill="none" xmlns="http://www.w3.org/2000/svg">
<path d="M49 45.3333V34.6666C49 33.7871 49 33.3473 49.1851 33.087C49.3466 32.8599 49.5956 32.7105 49.8721 32.6749C50.1885 32.6341 50.5757 32.8406 51.3504 33.2537L51.3525 33.2549L61.3525 38.5882C62.212 39.0466 62.6418 39.2758 62.7826 39.581C62.9053 39.8469 62.9053 40.1531 62.7826 40.4189C62.6418 40.7241 62.212 40.9534 61.3525 41.4117L51.3525 46.7451L51.3498 46.7465C50.5755 47.1595 50.1884 47.3659 49.8721 47.3251C49.5956 47.2895 49.3466 47.1401 49.1851 46.913C49 46.6527 49 46.2129 49 45.3333Z" stroke="white" stroke-width="2" stroke-linecap="round" stroke-linejoin="round"/>
<path d="M81 1H111V79H81" stroke="white" stroke-width="2"/>
<path d="M31 1H1V79H31" stroke="white" stroke-width="2"/>
</svg>
