<svg width="203" height="35" viewBox="0 0 203 35" fill="none" xmlns="http://www.w3.org/2000/svg">
<path d="M17.5 3.23607L20.2534 11.7102C20.5212 12.5343 21.2891 13.0922 22.1555 13.0922L31.0658 13.0922L23.8572 18.3295C23.1563 18.8388 22.863 19.7416 23.1307 20.5656L25.8841 29.0398L18.6756 23.8024C17.9746 23.2932 17.0254 23.2932 16.3244 23.8024L9.11587 29.0398L11.8693 20.5656C12.137 19.7415 11.8437 18.8388 11.1428 18.3295L10.555 19.1385L11.1428 18.3295L3.93419 13.0922L12.8445 13.0922C13.7109 13.0922 14.4788 12.5343 14.7466 11.7102L17.5 3.23607Z" fill="#63E2B7" stroke="#63E2B7" stroke-width="2"/>
<path d="M59.5 3.23607L62.2534 11.7102C62.5212 12.5343 63.2891 13.0922 64.1555 13.0922L73.0658 13.0922L65.8572 18.3295C65.1563 18.8388 64.863 19.7416 65.1307 20.5656L67.8841 29.0398L60.6756 23.8024C59.9746 23.2932 59.0254 23.2932 58.3244 23.8024L51.1159 29.0398L53.8693 20.5656C54.137 19.7415 53.8437 18.8388 53.1428 18.3295L52.555 19.1385L53.1428 18.3295L45.9342 13.0922L54.8445 13.0922C55.7109 13.0922 56.4788 12.5343 56.7466 11.7102L59.5 3.23607Z" fill="#63E2B7" stroke="#63E2B7" stroke-width="2"/>
<path d="M101.5 3.23607L104.253 11.7102C104.521 12.5343 105.289 13.0922 106.156 13.0922L115.066 13.0922L107.857 18.3295C107.156 18.8388 106.863 19.7416 107.131 20.5656L109.884 29.0398L102.676 23.8024C101.975 23.2932 101.025 23.2932 100.324 23.8024L93.1159 29.0398L95.8693 20.5656C96.137 19.7415 95.8437 18.8388 95.1428 18.3295L94.555 19.1385L95.1428 18.3295L87.9342 13.0922L96.8445 13.0922C97.7109 13.0922 98.4788 12.5343 98.7466 11.7102L101.5 3.23607Z" fill="#63E2B7" stroke="#63E2B7" stroke-width="2"/>
<path d="M143.5 3.23607L146.253 11.7102C146.521 12.5343 147.289 13.0922 148.156 13.0922L157.066 13.0922L149.857 18.3295C149.156 18.8388 148.863 19.7416 149.131 20.5656L151.884 29.0398L144.676 23.8024C143.975 23.2932 143.025 23.2932 142.324 23.8024L135.116 29.0398L137.869 20.5656C138.137 19.7415 137.844 18.8388 137.143 18.3295L136.555 19.1385L137.143 18.3295L129.934 13.0922L138.844 13.0922C139.711 13.0922 140.479 12.5343 140.747 11.7102L143.5 3.23607Z" stroke="#63E2B7" stroke-width="2"/>
<path d="M185.5 3.23607L188.253 11.7102C188.521 12.5343 189.289 13.0922 190.156 13.0922L199.066 13.0922L191.857 18.3295C191.156 18.8388 190.863 19.7416 191.131 20.5656L193.884 29.0398L186.676 23.8024C185.975 23.2932 185.025 23.2932 184.324 23.8024L177.116 29.0398L179.869 20.5656C180.137 19.7415 179.844 18.8388 179.143 18.3295L178.555 19.1385L179.143 18.3295L171.934 13.0922L180.844 13.0922C181.711 13.0922 182.479 12.5343 182.747 11.7102L185.5 3.23607Z" stroke="#63E2B7" stroke-width="2"/>
</svg>
